<?xml version="1.0" encoding="UTF-8"?>
<svg id="Layer_1" xmlns="http://www.w3.org/2000/svg" xmlns:xlink="http://www.w3.org/1999/xlink" version="1.1" viewBox="0 0 100 100">
  <!-- Generator: Adobe Illustrator 30.1.0, SVG Export Plug-In . SVG Version: 2.1.1 Build 136)  -->
  <defs>
    <style>
      .st0, .st1 {
        isolation: isolate;
      }

      .st2 {
        fill: #fff;
      }

      .st1 {
        fill: url(#linear-gradient);
      }
    </style>
    <linearGradient id="linear-gradient" x1="8.51" y1="85.23" x2="91.38" y2="85.23" gradientTransform="translate(0 -38)" gradientUnits="userSpaceOnUse">
      <stop offset="0" stop-color="#22d3ee"/>
      <stop offset=".5" stop-color="#a855f7"/>
      <stop offset="1" stop-color="#fb923c"/>
    </linearGradient>
  </defs>
  <rect x="-.71" y="-.66" width="101.31" height="101.31"/>
  <path class="st1" d="M13.19,59.35c-.85,0-1.63-.21-2.34-.64-.71-.43-1.28-.99-1.7-1.7-.43-.71-.64-1.49-.64-2.34v-1.85h4.44v1.65c0,.11.04.21.12.29.08.08.17.12.29.12h14.51c.11,0,.21-.04.29-.12s.12-.17.12-.29v-4.61c0-.11-.04-.2-.12-.27-.08-.07-.17-.1-.29-.1h-14.68c-.85,0-1.63-.21-2.34-.64-.71-.43-1.28-.99-1.7-1.7-.43-.71-.64-1.5-.64-2.37v-4.98c0-.85.21-1.63.64-2.34.43-.71.99-1.27,1.7-1.7.71-.43,1.49-.64,2.34-.64h14.88c.85,0,1.63.21,2.34.64.71.43,1.27.99,1.7,1.7.43.71.64,1.49.64,2.34v1.85h-4.48v-1.65c0-.11-.04-.21-.12-.29-.08-.08-.17-.12-.29-.12h-14.51c-.11,0-.21.04-.29.12-.08.08-.12.17-.12.29v4.61c0,.11.04.2.12.27.08.07.17.1.29.1h14.72c.85,0,1.63.21,2.34.64.71.43,1.27.99,1.7,1.7.43.71.64,1.5.64,2.37v4.98c0,.85-.21,1.63-.64,2.34-.43.71-.99,1.27-1.7,1.7s-1.49.64-2.34.64c0,0-14.88,0-14.88,0ZM36.49,59.35v-24.25h19.53c.85,0,1.64.21,2.36.64.72.43,1.29.99,1.72,1.7.43.71.64,1.49.64,2.34v14.88c0,.85-.21,1.63-.64,2.34-.43.71-1,1.27-1.72,1.7s-1.5.64-2.36.64c0,0-19.53,0-19.53,0ZM41.3,54.87h14.51c.11,0,.21-.04.3-.12.09-.08.13-.17.13-.29v-14.48c0-.11-.05-.21-.13-.29-.09-.08-.19-.12-.3-.12h-14.51c-.11,0-.21.04-.29.12-.08.08-.12.17-.12.29v14.48c0,.11.04.21.12.29.08.08.17.12.29.12h0ZM64.03,59.35v-24.25h4.88l8.79,10.47,8.76-10.47h4.92v24.25h-4.48v-17.78l-9.19,10.94-9.23-10.91v17.75h-4.44Z"/>
  <g class="st0">
    <path class="st2" d="M9.26,64.99c-.08,0-.16-.02-.23-.06-.07-.04-.13-.1-.17-.17-.04-.07-.06-.15-.06-.23v-.11h.31v.11s.01.08.04.11.07.04.11.04h1.84s.08-.01.11-.04.04-.07.04-.11v-.62s-.01-.08-.04-.1-.07-.04-.11-.04h-1.84c-.08,0-.16-.02-.23-.06-.07-.04-.13-.1-.17-.17-.04-.07-.06-.15-.06-.23v-.62c0-.08.02-.16.06-.23s.1-.13.17-.17c.07-.04.15-.06.23-.06h1.84c.08,0,.16.02.23.06.07.04.13.1.17.17.04.07.06.15.06.23v.11h-.31v-.11s-.01-.08-.04-.11-.07-.04-.11-.04h-1.84s-.08.01-.11.04-.04.07-.04.11v.62s.01.08.04.1.07.04.11.04h1.84c.08,0,.16.02.23.06s.13.1.17.17.06.15.06.23v.62c0,.08-.02.16-.06.23s-.1.13-.17.17c-.07.04-.15.06-.23.06h-1.84Z"/>
    <path class="st2" d="M13.17,64.99v-2.75h.31v1.22h2.2v-1.22h.31v2.75h-.31v-1.22h-2.2v1.22h-.31Z"/>
    <path class="st2" d="M17.62,64.99v-2.75h2.52v.31h-2.2v.91h1.77v.31h-1.77v.91h2.2v.31h-2.52Z"/>
    <path class="st2" d="M21.74,64.99v-2.75h2.3c.08,0,.16.02.23.06s.13.1.17.17c.04.07.06.15.06.23v.81c0,.08-.02.16-.06.23s-.1.12-.17.17-.15.06-.23.06h-1.99v1.02h-.31,0ZM22.2,63.65h1.84s.08-.01.11-.04c.03-.03.04-.06.04-.1v-.81s-.01-.08-.04-.11-.07-.04-.11-.04h-1.84s-.08.01-.11.04-.04.07-.04.11v.81s.01.08.04.1.07.04.11.04ZM24.06,64.99l-.9-1.07h.41l.9,1.07h0s-.41,0-.41,0h0Z"/>
    <path class="st2" d="M26.09,64.99v-2.76h.31v2.45h2.45v.31h-2.75Z"/>
    <path class="st2" d="M30.72,64.99c-.08,0-.16-.02-.23-.06-.07-.04-.13-.1-.17-.17-.04-.07-.06-.15-.06-.23v-1.84c0-.08.02-.16.06-.23s.1-.13.17-.17.15-.06.23-.06h1.84c.08,0,.16.02.23.06s.13.1.17.17c.04.07.06.15.06.23v1.84c0,.08-.02.16-.06.23s-.1.13-.17.17c-.07.04-.15.06-.23.06h-1.84ZM30.72,64.68h1.84s.08-.01.11-.04.04-.07.04-.11v-1.84s-.01-.08-.04-.11-.07-.04-.11-.04h-1.84s-.08.01-.11.04-.04.07-.04.11v1.84s.01.08.04.11.07.04.11.04Z"/>
    <path class="st2" d="M35.08,64.99c-.08,0-.16-.02-.23-.06-.07-.04-.13-.1-.17-.17-.04-.07-.06-.15-.06-.23v-1.84c0-.08.02-.16.06-.23.04-.07.1-.13.17-.17.07-.04.15-.06.23-.06h2.29v.31h-2.29s-.08.01-.11.04-.04.07-.04.11v1.84s.01.08.04.11.07.04.11.04h2.29v.31h-2.29Z"/>
    <path class="st2" d="M38.97,64.99v-2.75h.31v1.22h.89l1.02-1.22h.4s-1.15,1.38-1.15,1.38l1.16,1.37h0s-.4,0-.4,0l-1.02-1.22h-.89v1.22h-.31Z"/>
    <path class="st2" d="M45.45,64.99v-2.75h2.3c.08,0,.16.02.23.06s.13.1.17.17c.04.07.06.15.06.23v1.84c0,.08-.02.16-.06.23-.04.07-.1.13-.17.17-.07.04-.15.06-.23.06h-2.3ZM45.91,64.68h1.84s.08-.01.11-.04.04-.07.04-.11v-1.84s-.01-.08-.04-.11-.07-.04-.11-.04h-1.84s-.08.01-.11.04-.04.07-.04.11v1.84s.01.08.04.11.07.04.11.04Z"/>
    <path class="st2" d="M49.87,64.99v-2.75h.31v2.75h-.31Z"/>
    <path class="st2" d="M52.3,64.99c-.08,0-.16-.02-.23-.06-.07-.04-.13-.1-.17-.17-.04-.07-.06-.15-.06-.23v-1.84c0-.08.02-.16.06-.23.04-.07.1-.13.17-.17.07-.04.15-.06.23-.06h1.84c.08,0,.16.02.23.06.07.04.13.1.17.17.04.07.06.15.06.23v.11h-.31v-.11s-.01-.08-.04-.11-.07-.04-.11-.04h-1.84s-.08.01-.11.04-.04.07-.04.11v1.84s.01.08.04.11.07.04.11.04h1.84s.08-.01.11-.04.04-.07.04-.11v-.68h-.68v-.31h.99v1c0,.08-.02.16-.06.23-.04.07-.1.13-.17.17-.07.04-.15.06-.23.06h-1.84Z"/>
    <path class="st2" d="M56.25,64.99v-2.75h.31v2.75h-.31Z"/>
    <path class="st2" d="M59.31,64.99v-2.45h-1.22v-.31h2.75v.31h-1.22v2.45h-.31,0Z"/>
    <path class="st2" d="M62.33,62.69c0-.08.02-.16.06-.23s.1-.13.17-.17c.07-.04.15-.06.23-.06h1.84c.08,0,.16.02.23.06s.13.1.17.17c.04.07.06.15.06.23v2.3h-.31v-1.01h-2.14v1.01h-.31v-2.3h0ZM64.77,63.67v-.98s-.01-.08-.04-.11c-.03-.03-.07-.04-.11-.04h-1.84s-.08.01-.11.04-.04.07-.04.11v.98h2.14Z"/>
    <path class="st2" d="M66.72,64.99v-2.76h.31v2.45h2.45v.31h-2.75Z"/>
    <path class="st2" d="M73.13,64.99v-2.75h.43l1.14,1.36,1.14-1.36h.43v2.75h-.31v-2.4l-1.26,1.5-1.26-1.5v2.4h-.31,0Z"/>
    <path class="st2" d="M77.88,64.99v-2.75h2.52v.31h-2.2v.91h1.77v.31h-1.77v.91h2.2v.31h-2.52Z"/>
    <path class="st2" d="M82,64.99v-2.75h2.3c.08,0,.16.02.23.06s.13.1.17.17c.04.07.06.15.06.23v1.84c0,.08-.02.16-.06.23s-.1.13-.17.17c-.07.04-.15.06-.23.06h-2.3ZM82.46,64.68h1.84s.08-.01.11-.04.04-.07.04-.11v-1.84s-.01-.08-.04-.11c-.03-.03-.07-.04-.11-.04h-1.84s-.08.01-.11.04-.04.07-.04.11v1.84s.01.08.04.11.07.04.11.04Z"/>
    <path class="st2" d="M86.42,64.99v-2.75h.31v2.75h-.31Z"/>
    <path class="st2" d="M88.4,62.69c0-.08.02-.16.06-.23s.1-.13.17-.17c.07-.04.15-.06.23-.06h1.84c.08,0,.16.02.23.06s.13.1.17.17c.04.07.06.15.06.23v2.3h-.31v-1.01h-2.14v1.01h-.31v-2.3h0ZM90.85,63.67v-.98s-.01-.08-.04-.11c-.03-.03-.07-.04-.11-.04h-1.84s-.08.01-.11.04-.04.07-.04.11v.98h2.14Z"/>
  </g>
</svg>