<?xml version="1.0" encoding="UTF-8"?>
<svg id="Layer_1" xmlns="http://www.w3.org/2000/svg" xmlns:xlink="http://www.w3.org/1999/xlink" version="1.1" viewBox="0 0 4000 4000">
  <!-- Generator: Adobe Illustrator 30.1.0, SVG Export Plug-In . SVG Version: 2.1.1 Build 136)  -->
  <defs>
    <style>
      .st0, .st1 {
        isolation: isolate;
      }

      .st2 {
        fill: #fff;
      }

      .st1 {
        fill: url(#linear-gradient);
      }

      .st3 {
        display: none;
      }
    </style>
    <linearGradient id="linear-gradient" x1="363.73" y1="1928.46" x2="3635.97" y2="1928.46" gradientTransform="translate(0 -38)" gradientUnits="userSpaceOnUse">
      <stop offset="0" stop-color="#22d3ee"/>
      <stop offset=".5" stop-color="#a855f7"/>
      <stop offset="1" stop-color="#fb923c"/>
    </linearGradient>
  </defs>
  <rect class="st3" x="-.3" y="-.37" width="4000.3" height="4000.3"/>
  <path class="st1" d="M548.55,2369.13c-33.74,0-64.49-8.39-92.41-25.26-27.92-16.87-50.36-39.22-67.15-67.15-16.87-27.92-25.26-58.67-25.26-92.41v-73.13h175.51v65.15c0,4.49,1.58,8.23,4.65,11.3,3.07,3.16,6.81,4.65,11.3,4.65h573.07c4.4,0,8.14-1.5,11.3-4.65,3.16-3.16,4.65-6.9,4.65-11.3v-182.16c0-4.4-1.58-7.98-4.65-10.64-3.16-2.66-6.9-3.99-11.3-3.99h-579.72c-33.74,0-64.49-8.39-92.41-25.26-27.92-16.87-50.36-39.22-67.15-67.15-16.87-27.92-25.26-59.17-25.26-93.74v-196.79c0-33.66,8.39-64.49,25.26-92.41,16.79-27.92,39.22-50.28,67.15-67.15,27.92-16.79,58.67-25.26,92.41-25.26h587.7c33.66,0,64.49,8.48,92.41,25.26,27.92,16.87,50.28,39.22,67.15,67.15,16.79,27.92,25.26,58.75,25.26,92.41v73.13h-176.84v-65.15c0-4.4-1.58-8.23-4.65-11.3-3.16-3.07-6.9-4.65-11.3-4.65h-573.07c-4.49,0-8.23,1.58-11.3,4.65-3.16,3.16-4.65,6.9-4.65,11.3v182.16c0,4.49,1.58,7.98,4.65,10.64,3.07,2.66,6.81,3.99,11.3,3.99h581.05c33.66,0,64.49,8.48,92.41,25.26,27.92,16.87,50.28,39.22,67.15,67.15,16.79,27.92,25.26,59.17,25.26,93.74v196.79c0,33.74-8.48,64.49-25.26,92.41-16.87,27.92-39.22,50.28-67.15,67.15-27.92,16.87-58.75,25.26-92.41,25.26,0,0-587.7,0-587.7,0ZM1468.66,2369.13v-957.34h771.19c33.66,0,64.74,8.48,93.07,25.26,28.34,16.87,50.94,39.22,67.81,67.15,16.87,27.92,25.26,58.75,25.26,92.41v587.7c0,33.74-8.48,64.49-25.26,92.41-16.87,27.92-39.47,50.28-67.81,67.15-28.34,16.87-59.42,25.26-93.07,25.26,0,0-771.19,0-771.19,0ZM1658.8,2192.29h573.07c4.4,0,8.39-1.5,11.97-4.65,3.49-3.07,5.32-6.9,5.32-11.3v-571.74c0-4.4-1.83-8.23-5.32-11.3-3.57-3.07-7.56-4.65-11.97-4.65h-573.07c-4.49,0-8.23,1.58-11.3,4.65-3.16,3.16-4.65,6.9-4.65,11.3v571.74c0,4.49,1.5,8.23,4.65,11.3,3.07,3.16,6.9,4.65,11.3,4.65h0ZM2556.31,2369.13v-957.34h192.8l347.04,413.52,345.71-413.52h194.13v957.34h-176.84v-702.05l-362.99,432.13-364.32-430.8v700.72h-175.51Z"/>
  <g class="st0">
    <path class="st2" d="M393.65,2591.68c-3.32,0-6.4-.83-9.14-2.41-2.74-1.58-4.99-3.82-6.57-6.57-1.58-2.74-2.41-5.82-2.41-9.14v-4.24h12.22v4.24c0,1.58.58,2.99,1.75,4.16s2.58,1.75,4.16,1.75h72.55c1.58,0,2.99-.58,4.16-1.75s1.75-2.58,1.75-4.16v-24.35c0-1.58-.58-2.99-1.75-4.07-1.16-1.08-2.58-1.66-4.16-1.66h-72.55c-3.32,0-6.4-.83-9.14-2.49-2.74-1.66-4.99-3.82-6.57-6.57-1.58-2.74-2.41-5.73-2.41-9.06v-24.35c0-3.32.83-6.4,2.41-9.14s3.82-4.99,6.57-6.57c2.74-1.58,5.82-2.41,9.14-2.41h72.55c3.32,0,6.4.83,9.14,2.41,2.74,1.58,4.99,3.82,6.57,6.57,1.58,2.74,2.41,5.82,2.41,9.14v4.24h-12.22v-4.24c0-1.58-.58-2.99-1.75-4.16-1.16-1.16-2.58-1.75-4.16-1.75h-72.55c-1.58,0-2.99.58-4.16,1.75-1.16,1.16-1.75,2.58-1.75,4.16v24.35c0,1.58.58,2.99,1.75,4.07,1.16,1.08,2.58,1.66,4.16,1.66h72.55c3.32,0,6.4.83,9.14,2.49,2.74,1.66,4.99,3.82,6.57,6.57,1.58,2.74,2.41,5.73,2.41,9.06v24.35c0,3.32-.83,6.4-2.41,9.14s-3.82,4.99-6.57,6.57c-2.74,1.58-5.82,2.41-9.14,2.41h-72.55Z"/>
    <path class="st2" d="M547.8,2591.68v-108.78h12.22v48.2h86.84v-48.2h12.38v108.78h-12.38v-48.2h-86.84v48.2h-12.22Z"/>
    <path class="st2" d="M723.65,2591.68v-108.78h99.31v12.22h-87.01v35.98h69.97v12.38h-69.97v35.98h87.01v12.22h-99.31Z"/>
    <path class="st2" d="M886.28,2591.68v-108.61h90.66c3.32,0,6.4.83,9.14,2.49s4.99,3.82,6.57,6.57c1.58,2.74,2.41,5.73,2.41,9.06v31.91c0,3.32-.83,6.32-2.41,9.06s-3.82,4.9-6.57,6.57c-2.74,1.66-5.82,2.49-9.14,2.49h-78.45v40.47h-12.22,0ZM904.4,2538.83h72.55c1.58,0,2.99-.58,4.16-1.66,1.16-1.08,1.75-2.49,1.75-4.07v-31.91c0-1.58-.58-2.99-1.75-4.16s-2.58-1.75-4.16-1.75h-72.55c-1.58,0-2.99.58-4.16,1.75s-1.75,2.58-1.75,4.16v31.91c0,1.58.58,2.99,1.75,4.07s2.58,1.66,4.16,1.66ZM978.11,2591.68l-35.48-42.3h16.04l35.65,42.13v.17h-16.21Z"/>
    <path class="st2" d="M1058.22,2591.68v-108.95h12.22v96.73h96.57v12.22h-108.78Z"/>
    <path class="st2" d="M1240.71,2591.68c-3.32,0-6.4-.83-9.14-2.41-2.74-1.58-4.99-3.82-6.57-6.57-1.58-2.74-2.41-5.82-2.41-9.14v-72.55c0-3.32.83-6.4,2.41-9.14s3.82-4.99,6.57-6.57c2.74-1.58,5.82-2.41,9.14-2.41h72.55c3.32,0,6.4.83,9.14,2.41,2.74,1.58,4.99,3.82,6.57,6.57,1.58,2.74,2.41,5.82,2.41,9.14v72.55c0,3.32-.83,6.4-2.41,9.14-1.58,2.74-3.82,4.99-6.57,6.57-2.74,1.58-5.82,2.41-9.14,2.41h-72.55ZM1240.71,2579.46h72.55c1.58,0,2.99-.58,4.16-1.75s1.75-2.58,1.75-4.16v-72.55c0-1.58-.58-2.99-1.75-4.16s-2.58-1.75-4.16-1.75h-72.55c-1.58,0-2.99.58-4.16,1.75s-1.75,2.58-1.75,4.16v72.55c0,1.58.58,2.99,1.75,4.16s2.58,1.75,4.16,1.75Z"/>
    <path class="st2" d="M1413.23,2591.68c-3.32,0-6.4-.83-9.14-2.41-2.74-1.58-4.99-3.82-6.57-6.57-1.58-2.74-2.41-5.82-2.41-9.14v-72.55c0-3.32.83-6.4,2.41-9.14,1.58-2.74,3.82-4.99,6.57-6.57,2.74-1.58,5.82-2.41,9.14-2.41h90.33v12.22h-90.33c-1.58,0-2.99.58-4.16,1.75-1.16,1.16-1.75,2.58-1.75,4.16v72.55c0,1.58.58,2.99,1.75,4.16,1.16,1.16,2.58,1.75,4.16,1.75h90.33v12.22h-90.33Z"/>
    <path class="st2" d="M1566.64,2591.68v-108.78h12.38v48.2h35.07l40.47-48.2h15.71v.17l-45.46,54.27,45.62,54.27v.17h-15.87l-40.47-48.2h-35.07v48.2h-12.38v-.08Z"/>
    <path class="st2" d="M1822.59,2591.68v-108.78h90.66c3.32,0,6.4.83,9.14,2.41,2.74,1.58,4.99,3.82,6.57,6.57,1.58,2.74,2.41,5.82,2.41,9.14v72.55c0,3.32-.83,6.4-2.41,9.14-1.58,2.74-3.82,4.99-6.57,6.57-2.74,1.58-5.82,2.41-9.14,2.41h-90.66ZM1840.71,2579.46h72.55c1.58,0,2.99-.58,4.16-1.75s1.75-2.58,1.75-4.16v-72.55c0-1.58-.58-2.99-1.75-4.16-1.16-1.16-2.58-1.75-4.16-1.75h-72.55c-1.58,0-2.99.58-4.16,1.75-1.16,1.16-1.75,2.58-1.75,4.16v72.55c0,1.58.58,2.99,1.75,4.16,1.16,1.16,2.58,1.75,4.16,1.75Z"/>
    <path class="st2" d="M1996.94,2591.68v-108.78h12.38v108.78h-12.38Z"/>
    <path class="st2" d="M2093.01,2591.68c-3.32,0-6.4-.83-9.14-2.41-2.74-1.58-4.99-3.82-6.57-6.57-1.58-2.74-2.41-5.82-2.41-9.14v-72.55c0-3.32.83-6.4,2.41-9.14,1.58-2.74,3.82-4.99,6.57-6.57,2.74-1.58,5.82-2.41,9.14-2.41h72.55c3.32,0,6.4.83,9.14,2.41,2.74,1.58,4.99,3.82,6.57,6.57,1.58,2.74,2.41,5.82,2.41,9.14v4.4h-12.22v-4.4c0-1.58-.58-2.99-1.75-4.16-1.16-1.16-2.58-1.75-4.16-1.75h-72.55c-1.58,0-2.99.58-4.16,1.75s-1.75,2.58-1.75,4.16v72.55c0,1.58.58,2.99,1.75,4.16s2.58,1.75,4.16,1.75h72.55c1.58,0,2.99-.58,4.16-1.75s1.75-2.58,1.75-4.16v-26.93h-26.93v-12.38h39.14v39.31c0,3.32-.83,6.4-2.41,9.14-1.58,2.74-3.82,4.99-6.57,6.57-2.74,1.58-5.82,2.41-9.14,2.41h-72.55Z"/>
    <path class="st2" d="M2248.99,2591.68v-108.78h12.38v108.78h-12.38Z"/>
    <path class="st2" d="M2369.82,2591.68v-96.57h-48.37v-12.22h108.78v12.22h-48.2v96.57h-12.22,0Z"/>
    <path class="st2" d="M2489.08,2501.02c0-3.32.83-6.4,2.41-9.14s3.82-4.99,6.57-6.57c2.74-1.58,5.82-2.41,9.14-2.41h72.55c3.32,0,6.4.83,9.14,2.41,2.74,1.58,4.99,3.82,6.57,6.57,1.58,2.74,2.41,5.82,2.41,9.14v90.66h-12.22v-39.72h-84.35v39.72h-12.22v-90.66h0ZM2585.56,2539.74v-38.64c0-1.58-.58-2.99-1.75-4.16-1.16-1.16-2.58-1.75-4.16-1.75h-72.55c-1.58,0-2.99.58-4.16,1.75-1.16,1.16-1.75,2.58-1.75,4.16v38.64h84.35Z"/>
    <path class="st2" d="M2662.34,2591.68v-108.95h12.22v96.73h96.57v12.22h-108.78Z"/>
    <path class="st2" d="M2915.31,2591.68v-108.78h16.79l45.21,53.77,45.21-53.77h16.79v108.78h-12.22v-94.9l-49.7,59.09-49.7-59.09v94.9h-12.38,0Z"/>
    <path class="st2" d="M3102.95,2591.68v-108.78h99.31v12.22h-87.01v35.98h69.97v12.38h-69.97v35.98h87.01v12.22h-99.31Z"/>
    <path class="st2" d="M3265.83,2591.68v-108.78h90.66c3.32,0,6.4.83,9.14,2.41,2.74,1.58,4.99,3.82,6.57,6.57,1.58,2.74,2.41,5.82,2.41,9.14v72.55c0,3.32-.83,6.4-2.41,9.14s-3.82,4.99-6.57,6.57c-2.74,1.58-5.82,2.41-9.14,2.41h-90.66ZM3283.95,2579.46h72.55c1.58,0,2.99-.58,4.16-1.75s1.75-2.58,1.75-4.16v-72.55c0-1.58-.58-2.99-1.75-4.16-1.16-1.16-2.58-1.75-4.16-1.75h-72.55c-1.58,0-2.99.58-4.16,1.75s-1.75,2.58-1.75,4.16v72.55c0,1.58.58,2.99,1.75,4.16s2.58,1.75,4.16,1.75Z"/>
    <path class="st2" d="M3440.18,2591.68v-108.78h12.38v108.78h-12.38Z"/>
    <path class="st2" d="M3518.47,2501.02c0-3.32.83-6.4,2.41-9.14s3.82-4.99,6.57-6.57c2.74-1.58,5.82-2.41,9.14-2.41h72.55c3.32,0,6.4.83,9.14,2.41,2.74,1.58,4.99,3.82,6.57,6.57,1.58,2.74,2.41,5.82,2.41,9.14v90.66h-12.22v-39.72h-84.35v39.72h-12.22v-90.66h0ZM3615.03,2539.74v-38.64c0-1.58-.58-2.99-1.75-4.16-1.16-1.16-2.58-1.75-4.16-1.75h-72.55c-1.58,0-2.99.58-4.16,1.75-1.16,1.16-1.75,2.58-1.75,4.16v38.64h84.35Z"/>
  </g>
</svg>